<svg width="30" height="30" viewBox="0 0 30 30" fill="none" xmlns="http://www.w3.org/2000/svg">
  <path d="M3.75 3.75L26.25 26.25" stroke="#719CAC" stroke-width="2" stroke-linecap="round" stroke-linejoin="round"/>
  <path d="M13.125 13.3464C12.736 13.7871 12.5 14.366 12.5 15C12.5 16.3807 13.6193 17.5 15 17.5C15.634 17.5 16.2129 17.264 16.6536 16.875" stroke="#719CAC" stroke-width="2" stroke-linecap="round" stroke-linejoin="round"/>
  <path d="M9.20231 9.45132C7.10002 10.9246 5.34867 13.0235 3.75 15C6.1107 18.7387 10.3521 22.5 15 22.5C16.9374 22.5 18.8042 21.8465 20.4936 20.8134" stroke="#719CAC" stroke-width="2" stroke-linecap="round" stroke-linejoin="round"/>
  <path d="M15 7.5C20.0105 7.5 23.3769 11.4478 26.25 15C25.8519 15.6304 25.4004 16.2615 24.9025 16.875" stroke="#719CAC" stroke-width="2" stroke-linecap="round" stroke-linejoin="round"/>
</svg>