<svg width="48" height="48" viewBox="0 0 48 48" fill="none" xmlns="http://www.w3.org/2000/svg">
<path d="M6 6L42 42" stroke="#719CAC" stroke-width="2" stroke-linecap="round" stroke-linejoin="round"/>
<path d="M21 21.3542C20.3776 22.0593 20 22.9856 20 24C20 26.2092 21.7909 28 24 28C25.0144 28 25.9407 27.6224 26.6458 27" stroke="#719CAC" stroke-width="2" stroke-linecap="round" stroke-linejoin="round"/>
<path d="M14.7237 15.1221C11.36 17.4793 8.55788 20.8376 6 24C9.77712 29.9819 16.5634 36 24 36C27.0999 36 30.0867 34.9543 32.7897 33.3015" stroke="#719CAC" stroke-width="2" stroke-linecap="round" stroke-linejoin="round"/>
<path d="M24 12C32.0168 12 37.403 18.3164 42 24C41.3631 25.0086 40.6407 26.0183 39.844 27" stroke="#719CAC" stroke-width="2" stroke-linecap="round" stroke-linejoin="round"/>
</svg> 