<svg width="48" height="48" viewBox="0 0 48 48" fill="none" xmlns="http://www.w3.org/2000/svg">
<path d="M34 28L38.0009 24M42 20L38.0009 24M38.0009 24L34 20M38.0009 24L42 28" stroke="#719CAC" stroke-width="2" stroke-linecap="round" stroke-linejoin="round"/>
<path d="M6 29V19C6 18.4477 6.44772 18 7 18H13.6972C13.8946 18 14.0877 17.9416 14.2519 17.8321L24.4453 11.0365C25.1099 10.5934 26 11.0698 26 11.8685V36.1315C26 36.9302 25.1099 37.4066 24.4453 36.9635L14.2519 30.1679C14.0877 30.0584 13.8946 30 13.6972 30H7C6.44772 30 6 29.5523 6 29Z" stroke="#719CAC" stroke-width="2"/>
</svg> 