<svg width="30" height="30" viewBox="0 0 30 30" fill="none" xmlns="http://www.w3.org/2000/svg">
<path d="M21.25 17.5L23.7506 15M26.25 12.5L23.7506 15M23.7506 15L21.25 12.5M23.7506 15L26.25 17.5" stroke="#719CAC" stroke-width="2" stroke-linecap="round" stroke-linejoin="round"/>
<path d="M3.75 17.75V12.25C3.75 11.6977 4.19772 11.25 4.75 11.25H8.44722C8.64465 11.25 8.83766 11.1916 9.00192 11.0821L14.6953 7.28647C15.3599 6.84343 16.25 7.31982 16.25 8.11852V21.8815C16.25 22.6802 15.3599 23.1566 14.6953 22.7135L9.00192 18.9179C8.83766 18.8084 8.64465 18.75 8.44722 18.75H4.75C4.19772 18.75 3.75 18.3023 3.75 17.75Z" stroke="#719CAC" stroke-width="2"/>
</svg> 